<svg width="99" height="108" viewBox="0 0 99 108" fill="none" xmlns="http://www.w3.org/2000/svg">
<g filter="url(#filter0_d)">
<rect x="7" y="30.9812" width="58" height="72" rx="7" transform="rotate(-24.4229 7 30.9812)" fill="#2F80ED"/>
<rect x="8.15967" y="30.7194" width="58" height="72" rx="7" transform="rotate(-18.6915 8.15967 30.7194)" fill="white"/>
<rect x="8.08008" y="30.4837" width="58" height="72" rx="7" transform="rotate(-22.3997 8.08008 30.4837)" fill="white"/>
<path d="M15.0273 28.396C13.2059 29.0122 11.7022 30.3217 10.847 32.0365C9.99176 33.7513 9.85511 35.7308 10.4671 37.5396L28.9263 92.1017C29.5382 93.9105 30.8487 95.4005 32.5693 96.2438C34.29 97.0871 36.2799 97.2147 38.1013 96.5985L79.307 82.658C81.1284 82.0418 82.6321 80.7322 83.4873 79.0175C84.3425 77.3027 84.4792 75.3231 83.8672 73.5143L65.408 18.9522C64.7961 17.1434 63.4856 15.6534 61.765 14.8101C60.0443 13.9668 58.0544 13.8392 56.233 14.4554L15.0273 28.396ZM39.0912 31.6561C43.6448 30.1155 48.6195 30.4345 52.9212 32.5428C57.2228 34.6511 60.4989 38.376 62.0288 42.8982C63.5587 47.4203 63.2171 52.3691 61.079 56.6561C58.941 60.943 55.1818 64.2168 50.6283 65.7574C46.0747 67.2979 41.1 66.9789 36.7983 64.8706C32.4967 62.7623 29.2206 59.0374 27.6907 54.5153C26.1608 49.9932 26.5024 45.0443 28.6405 40.7574C30.7785 36.4704 34.5377 33.1966 39.0912 31.6561ZM40.2634 35.1208C39.5306 37.649 39.1521 40.3195 39.2731 42.9959L45.8316 40.777C44.2978 38.6022 42.4172 36.6918 40.2634 35.1208ZM36.036 37.3301C33.2607 39.4485 31.3533 42.4977 30.6714 45.906L35.6847 44.2099C35.5646 41.8753 35.6461 39.5712 36.0348 37.3267L36.036 37.3301ZM44.9467 34.3154C46.6171 35.8595 48.098 37.635 49.3685 39.5805L54.4368 37.8658C51.8136 35.5777 48.442 34.3153 44.9455 34.312L44.9467 34.3154ZM30.4172 49.7924C30.5117 50.9766 30.7265 52.1771 31.1245 53.3536C31.5225 54.5301 32.0807 55.6144 32.7246 56.6127L38.5277 54.6494C38.0097 53.5705 37.5259 52.48 37.1337 51.3206C36.7414 50.1611 36.4637 49.0009 36.2203 47.8291L30.4172 49.7924ZM39.6885 46.6558C39.8918 47.8222 40.1718 49.0006 40.5641 50.16C40.9563 51.3195 41.4401 52.41 41.9925 53.4772L50.0276 50.7588C49.8014 49.5812 49.5408 48.4152 49.1486 47.2557C48.7563 46.0963 48.2496 44.9946 47.7202 43.9385L39.6851 46.657L39.6885 46.6558ZM51.1883 42.7652C51.7064 43.8441 52.1901 44.9346 52.5824 46.094C52.9746 47.2535 53.2524 48.4137 53.4957 49.5855L59.2989 47.6222C59.2044 46.438 58.9896 45.2375 58.5916 44.061C58.1935 42.8845 57.6354 41.8002 56.9915 40.8019L51.1883 42.7652ZM35.2827 59.5477C37.9011 61.8311 41.2637 63.0953 44.7534 63.1084C43.0763 61.5265 41.5825 59.7629 40.2995 57.8504L35.2862 59.5465L35.2827 59.5477ZM43.8844 56.6376C45.4133 58.8377 47.3308 60.7162 49.448 62.2802C50.1809 59.752 50.564 57.0951 50.443 54.4187L43.8844 56.6376ZM53.9798 53.2221C54.1572 55.5157 54.0511 57.8235 53.6641 60.0937C56.4349 57.9635 58.3462 54.9155 59.0481 51.5075L53.9764 53.2233L53.9798 53.2221ZM35.7666 78.3862L70.1047 66.7691L72.4121 73.5893L38.074 85.2064L35.7666 78.3862Z" fill="#2F80ED"/>
<path d="M15.0273 28.396C13.2059 29.0122 11.7022 30.3217 10.847 32.0365C9.99176 33.7513 9.85511 35.7308 10.4671 37.5396L28.9263 92.1017C29.5382 93.9105 30.8487 95.4005 32.5693 96.2438C34.29 97.0871 36.2799 97.2147 38.1013 96.5985L79.307 82.658C81.1284 82.0418 82.6321 80.7322 83.4873 79.0175C84.3425 77.3027 84.4792 75.3231 83.8672 73.5143L65.408 18.9522C64.7961 17.1434 63.4856 15.6534 61.765 14.8101C60.0443 13.9668 58.0544 13.8392 56.233 14.4554L15.0273 28.396ZM39.0912 31.6561C43.6448 30.1155 48.6195 30.4345 52.9212 32.5428C57.2228 34.6511 60.4989 38.376 62.0288 42.8982C63.5587 47.4203 63.2171 52.3691 61.079 56.6561C58.941 60.943 55.1818 64.2168 50.6283 65.7574C46.0747 67.2979 41.1 66.9789 36.7983 64.8706C32.4967 62.7623 29.2206 59.0374 27.6907 54.5153C26.1608 49.9932 26.5024 45.0443 28.6405 40.7574C30.7785 36.4704 34.5377 33.1966 39.0912 31.6561ZM40.2634 35.1208C39.5306 37.649 39.1521 40.3195 39.2731 42.9959L45.8316 40.777C44.2978 38.6022 42.4172 36.6918 40.2634 35.1208ZM36.036 37.3301C33.2607 39.4485 31.3533 42.4977 30.6714 45.906L35.6847 44.2099C35.5646 41.8753 35.6461 39.5712 36.0348 37.3267L36.036 37.3301ZM44.9467 34.3154C46.6171 35.8595 48.098 37.635 49.3685 39.5805L54.4368 37.8658C51.8136 35.5777 48.442 34.3153 44.9455 34.312L44.9467 34.3154ZM30.4172 49.7924C30.5117 50.9766 30.7265 52.1771 31.1245 53.3536C31.5225 54.5301 32.0807 55.6144 32.7246 56.6127L38.5277 54.6494C38.0097 53.5705 37.5259 52.48 37.1337 51.3206C36.7414 50.1611 36.4637 49.0009 36.2203 47.8291L30.4172 49.7924ZM39.6885 46.6558C39.8918 47.8222 40.1718 49.0006 40.5641 50.16C40.9563 51.3195 41.4401 52.41 41.9925 53.4772L50.0276 50.7588C49.8014 49.5812 49.5408 48.4152 49.1486 47.2557C48.7563 46.0963 48.2496 44.9946 47.7202 43.9385L39.6851 46.657L39.6885 46.6558ZM51.1883 42.7652C51.7064 43.8441 52.1901 44.9346 52.5824 46.094C52.9746 47.2535 53.2524 48.4137 53.4957 49.5855L59.2989 47.6222C59.2044 46.438 58.9896 45.2375 58.5916 44.061C58.1935 42.8845 57.6354 41.8002 56.9915 40.8019L51.1883 42.7652ZM35.2827 59.5477C37.9011 61.8311 41.2637 63.0953 44.7534 63.1084C43.0763 61.5265 41.5825 59.7629 40.2995 57.8504L35.2862 59.5465L35.2827 59.5477ZM43.8844 56.6376C45.4133 58.8377 47.3308 60.7162 49.448 62.2802C50.1809 59.752 50.564 57.0951 50.443 54.4187L43.8844 56.6376ZM53.9798 53.2221C54.1572 55.5157 54.0511 57.8235 53.6641 60.0937C56.4349 57.9635 58.3462 54.9155 59.0481 51.5075L53.9764 53.2233L53.9798 53.2221ZM35.7666 78.3862L70.1047 66.7691L72.4121 73.5893L38.074 85.2064L35.7666 78.3862Z" fill="#2F80ED"/>
</g>
<defs>
<filter id="filter0_d" x="0" y="0" width="98.5798" height="107.922" filterUnits="userSpaceOnUse" color-interpolation-filters="sRGB">
<feFlood flood-opacity="0" result="BackgroundImageFix"/>
<feColorMatrix in="SourceAlpha" type="matrix" values="0 0 0 0 0 0 0 0 0 0 0 0 0 0 0 0 0 0 127 0"/>
<feOffset dx="1" dy="1"/>
<feGaussianBlur stdDeviation="4"/>
<feColorMatrix type="matrix" values="0 0 0 0 1 0 0 0 0 1 0 0 0 0 1 0 0 0 0.44 0"/>
<feBlend mode="normal" in2="BackgroundImageFix" result="effect1_dropShadow"/>
<feBlend mode="normal" in="SourceGraphic" in2="effect1_dropShadow" result="shape"/>
</filter>
</defs>
</svg>
