<svg width="892" height="644" viewBox="0 0 892 644" fill="none" xmlns="http://www.w3.org/2000/svg">
<g filter="url(#filter0_d)">
<rect x="406" y="48.8921" width="435" height="578" transform="rotate(-3.67631 406 48.8921)" fill="#2F80ED"/>
</g>
<g filter="url(#filter1_d)">
<rect x="67.3486" y="10" width="435" height="578" transform="rotate(5.29588 67.3486 10)" fill="#2F80ED"/>
</g>
<g filter="url(#filter2_d)">
<rect x="414" y="57.0085" width="421.221" height="559.691" transform="rotate(-3.67631 414 57.0085)" fill="#F2F2F2"/>
</g>
<g filter="url(#filter3_d)">
<rect x="120.608" width="421.221" height="559.691" transform="rotate(8.48769 120.608 0)" fill="#F2F2F2"/>
</g>
<rect x="445.229" y="49.9531" width="64" height="565" transform="rotate(2.27307 445.229 49.9531)" fill="url(#paint0_linear)"/>
<rect x="202.876" y="58.3396" width="142" height="142" rx="16" transform="rotate(7.50045 202.876 58.3396)" stroke="#BDBDBD" stroke-width="2" stroke-dasharray="5 5"/>
<rect x="176.658" y="238.122" width="142" height="142" rx="16" transform="rotate(7.50045 176.658 238.122)" stroke="#BDBDBD" stroke-width="2" stroke-dasharray="5 5"/>
<rect x="151.658" y="408.122" width="142" height="142" rx="16" transform="rotate(7.50045 151.658 408.122)" stroke="#BDBDBD" stroke-width="2" stroke-dasharray="5 5"/>
<rect x="566.14" y="88.5915" width="142" height="142" rx="16" transform="rotate(-8.68892 566.14 88.5915)" stroke="#BDBDBD" stroke-width="2" stroke-dasharray="5 5"/>
<rect x="591.087" y="268.555" width="142" height="142" rx="16" transform="rotate(-8.68892 591.087 268.555)" stroke="#BDBDBD" stroke-width="2" stroke-dasharray="5 5"/>
<rect x="614.477" y="438.784" width="142" height="142" rx="16" transform="rotate(-8.68892 614.477 438.784)" stroke="#BDBDBD" stroke-width="2" stroke-dasharray="5 5"/>
<path d="M216.322 303.834L221.673 304.359L221.363 307.512L211.929 306.586L213.573 289.819L217.658 290.219L216.322 303.834ZM229.718 308.524C228.412 308.396 227.261 308.002 226.265 307.341C225.285 306.683 224.543 305.806 224.039 304.712C223.551 303.619 223.376 302.38 223.511 300.994C223.646 299.625 224.066 298.452 224.773 297.477C225.481 296.485 226.388 295.762 227.494 295.308C228.599 294.854 229.805 294.691 231.111 294.819C232.416 294.947 233.567 295.341 234.564 296.001C235.56 296.662 236.309 297.547 236.811 298.657C237.315 299.752 237.499 300.984 237.365 302.353C237.231 303.723 236.801 304.902 236.077 305.892C235.371 306.868 234.457 307.582 233.335 308.035C232.229 308.489 231.024 308.652 229.718 308.524ZM230.065 304.989C230.845 305.066 231.534 304.844 232.132 304.324C232.745 303.805 233.104 303.012 233.209 301.945C233.314 300.879 233.123 300.032 232.638 299.406C232.169 298.781 231.544 298.43 230.764 298.354C229.968 298.276 229.279 298.497 228.697 299.019C228.117 299.525 227.774 300.319 227.668 301.402C227.563 302.469 227.737 303.314 228.191 303.937C228.66 304.562 229.285 304.913 230.065 304.989ZM244.64 309.988C243.477 309.874 242.462 309.573 241.593 309.086C240.725 308.599 240.061 307.987 239.603 307.251C239.146 306.499 238.928 305.69 238.949 304.824L242.985 305.219C242.988 305.686 243.166 306.081 243.52 306.405C243.874 306.729 244.33 306.919 244.887 306.973C245.397 307.023 245.796 306.966 246.086 306.802C246.393 306.623 246.562 306.374 246.593 306.056C246.63 305.673 246.459 305.375 246.078 305.161C245.698 304.931 245.074 304.661 244.204 304.35C243.27 304.034 242.497 303.725 241.883 303.423C241.271 303.106 240.76 302.662 240.35 302.091C239.941 301.505 239.782 300.757 239.871 299.85C239.946 299.085 240.221 298.413 240.695 297.833C241.188 297.238 241.858 296.797 242.706 296.511C243.57 296.226 244.567 296.139 245.698 296.249C247.37 296.413 248.643 296.956 249.517 297.878C250.407 298.801 250.857 299.955 250.866 301.338L247.092 300.968C247.074 300.5 246.902 300.113 246.579 299.808C246.271 299.505 245.838 299.326 245.281 299.271C244.803 299.224 244.428 299.284 244.154 299.45C243.882 299.6 243.731 299.834 243.699 300.153C243.662 300.535 243.833 300.841 244.212 301.071C244.607 301.303 245.226 301.557 246.067 301.832C247.029 302.184 247.808 302.517 248.404 302.833C249.002 303.133 249.504 303.584 249.911 304.187C250.336 304.775 250.511 305.532 250.436 306.457C250.36 307.237 250.068 307.916 249.561 308.493C249.072 309.056 248.396 309.472 247.534 309.741C246.687 310.012 245.723 310.094 244.64 309.988ZM260.682 307.872L260.342 311.335L258.264 311.131C256.783 310.986 255.664 310.514 254.906 309.717C254.15 308.903 253.852 307.676 254.013 306.036L254.533 300.733L252.909 300.574L253.242 297.182L254.866 297.342L255.184 294.093L259.269 294.494L258.95 297.742L261.625 298.005L261.293 301.396L258.618 301.134L258.093 306.484C258.054 306.882 258.121 307.178 258.295 307.372C258.469 307.566 258.779 307.685 259.225 307.729L260.682 307.872ZM200.774 324.736C202.542 324.91 204.052 325.411 205.305 326.242C206.558 327.072 207.48 328.159 208.072 329.503C208.681 330.833 208.904 332.326 208.742 333.982C208.581 335.622 208.072 337.043 207.215 338.245C206.373 339.449 205.249 340.335 203.843 340.905C202.452 341.476 200.881 341.675 199.13 341.504L192.848 340.888L194.493 324.12L200.774 324.736ZM199.214 337.943C200.758 338.094 202.002 337.79 202.945 337.031C203.887 336.271 204.434 335.119 204.586 333.574C204.737 332.03 204.425 330.785 203.65 329.841C202.874 328.897 201.714 328.349 200.17 328.198L198.235 328.008L197.279 337.753L199.214 337.943ZM223.799 336.978C223.761 337.36 223.698 337.756 223.61 338.165L214.366 337.259C214.349 338.093 214.549 338.756 214.967 339.247C215.403 339.724 215.963 339.996 216.648 340.063C217.667 340.163 218.418 339.802 218.9 338.982L223.247 339.408C222.938 340.262 222.455 341.01 221.797 341.653C221.155 342.298 220.377 342.776 219.462 343.088C218.547 343.4 217.548 343.503 216.465 343.397C215.16 343.269 214.024 342.876 213.06 342.219C212.096 341.562 211.378 340.687 210.906 339.596C210.434 338.505 210.266 337.267 210.402 335.881C210.538 334.496 210.935 333.313 211.594 332.333C212.269 331.354 213.143 330.636 214.217 330.178C215.291 329.721 216.488 329.557 217.81 329.687C219.1 329.813 220.22 330.196 221.17 330.836C222.12 331.476 222.825 332.325 223.283 333.383C223.758 334.442 223.93 335.641 223.799 336.978ZM219.724 335.493C219.793 334.793 219.609 334.212 219.172 333.751C218.735 333.29 218.158 333.025 217.441 332.954C216.757 332.887 216.156 333.029 215.639 333.38C215.138 333.733 214.796 334.27 214.613 334.992L219.724 335.493ZM231.04 344.827C229.878 344.713 228.862 344.412 227.994 343.925C227.125 343.438 226.462 342.826 226.004 342.09C225.547 341.338 225.329 340.529 225.349 339.662L229.386 340.058C229.388 340.525 229.567 340.92 229.921 341.244C230.275 341.568 230.731 341.758 231.288 341.812C231.797 341.862 232.197 341.805 232.486 341.641C232.793 341.462 232.962 341.213 232.994 340.894C233.031 340.512 232.859 340.214 232.478 340C232.099 339.77 231.475 339.5 230.605 339.189C229.671 338.872 228.898 338.564 228.284 338.262C227.672 337.945 227.161 337.501 226.751 336.93C226.342 336.343 226.182 335.596 226.271 334.689C226.346 333.924 226.621 333.252 227.096 332.672C227.589 332.077 228.259 331.636 229.107 331.349C229.971 331.064 230.968 330.977 232.099 331.088C233.771 331.252 235.044 331.795 235.918 332.717C236.808 333.64 237.258 334.794 237.267 336.177L233.493 335.807C233.474 335.339 233.303 334.952 232.979 334.647C232.672 334.344 232.239 334.165 231.682 334.11C231.204 334.063 230.828 334.123 230.555 334.289C230.283 334.439 230.131 334.673 230.1 334.992C230.062 335.374 230.233 335.68 230.613 335.91C231.008 336.142 231.626 336.396 232.467 336.671C233.43 337.023 234.209 337.356 234.805 337.672C235.402 337.972 235.905 338.423 236.312 339.025C236.736 339.614 236.911 340.37 236.837 341.296C236.76 342.076 236.469 342.755 235.962 343.332C235.473 343.895 234.797 344.311 233.934 344.58C233.088 344.851 232.123 344.933 231.04 344.827ZM252.553 339.799C252.515 340.181 252.452 340.576 252.364 340.986L243.12 340.079C243.103 340.913 243.303 341.576 243.721 342.067C244.157 342.544 244.717 342.816 245.402 342.883C246.421 342.983 247.171 342.623 247.654 341.802L252.001 342.228C251.692 343.082 251.209 343.831 250.551 344.473C249.909 345.118 249.131 345.596 248.216 345.908C247.301 346.221 246.302 346.324 245.219 346.217C243.913 346.089 242.778 345.697 241.814 345.039C240.849 344.382 240.131 343.508 239.66 342.416C239.188 341.325 239.02 340.087 239.156 338.702C239.292 337.316 239.689 336.133 240.348 335.153C241.023 334.174 241.897 333.456 242.971 332.999C244.045 332.541 245.242 332.378 246.564 332.507C247.854 332.634 248.974 333.017 249.924 333.657C250.874 334.296 251.578 335.145 252.037 336.203C252.512 337.263 252.684 338.461 252.553 339.799ZM248.478 338.314C248.547 337.613 248.363 337.032 247.926 336.571C247.489 336.111 246.912 335.845 246.195 335.775C245.511 335.708 244.91 335.85 244.393 336.201C243.892 336.554 243.55 337.091 243.367 337.812L248.478 338.314ZM259.565 336.218C260.114 335.532 260.768 335.018 261.525 334.674C262.284 334.314 263.101 334.177 263.977 334.263L263.553 338.587L262.43 338.476C261.411 338.377 260.625 338.524 260.072 338.92C259.52 339.3 259.19 340.04 259.082 341.138L258.475 347.325L254.391 346.924L255.698 333.596L259.783 333.997L259.565 336.218ZM272.734 345.227L272.394 348.69L270.316 348.486C268.835 348.341 267.716 347.869 266.958 347.072C266.202 346.258 265.904 345.031 266.065 343.391L266.585 338.088L264.961 337.929L265.294 334.537L266.918 334.697L267.237 331.448L271.321 331.849L271.003 335.097L273.678 335.36L273.345 338.751L270.67 338.489L270.145 343.839C270.106 344.237 270.173 344.533 270.347 344.727C270.521 344.921 270.831 345.04 271.277 345.084L272.734 345.227Z" fill="#BDBDBD"/>
<path d="M182.798 458.154L181.154 474.922L177.069 474.521L178.056 464.465L173.319 474.153L170.023 473.83L167.238 463.38L166.249 473.46L162.165 473.059L163.81 456.292L168.634 456.765L172.201 468.835L177.997 457.683L182.798 458.154ZM199.371 463.252L189.083 482.09L184.688 481.659L188.411 475.175L184.252 461.769L188.814 462.217L191.077 470.855L194.952 462.819L199.371 463.252ZM205.302 477.483C204.14 477.369 203.124 477.069 202.256 476.582C201.387 476.094 200.724 475.483 200.265 474.746C199.809 473.994 199.591 473.185 199.611 472.319L203.648 472.715C203.65 473.181 203.829 473.577 204.183 473.901C204.537 474.225 204.992 474.414 205.55 474.469C206.059 474.519 206.459 474.462 206.748 474.297C207.055 474.118 207.224 473.87 207.255 473.551C207.293 473.169 207.121 472.871 206.74 472.657C206.361 472.426 205.736 472.156 204.867 471.846C203.933 471.529 203.159 471.22 202.546 470.919C201.934 470.602 201.423 470.158 201.013 469.587C200.604 469 200.444 468.253 200.533 467.345C200.608 466.581 200.883 465.909 201.358 465.328C201.85 464.733 202.521 464.293 203.369 464.006C204.233 463.721 205.23 463.634 206.36 463.745C208.032 463.909 209.306 464.452 210.18 465.374C211.07 466.297 211.519 467.45 211.528 468.834L207.755 468.464C207.736 467.996 207.565 467.609 207.241 467.304C206.933 467 206.501 466.821 205.944 466.767C205.466 466.72 205.09 466.779 204.817 466.946C204.545 467.096 204.393 467.33 204.362 467.648C204.324 468.031 204.495 468.337 204.875 468.567C205.27 468.799 205.888 469.052 206.729 469.328C207.692 469.679 208.471 470.013 209.067 470.329C209.664 470.628 210.167 471.08 210.574 471.682C210.998 472.27 211.173 473.027 211.099 473.952C211.022 474.732 210.731 475.411 210.224 475.989C209.734 476.551 209.059 476.967 208.196 477.237C207.35 477.507 206.385 477.589 205.302 477.483ZM221.344 475.367L221.005 478.831L218.927 478.627C217.446 478.481 216.326 478.01 215.569 477.212C214.812 476.398 214.515 475.172 214.676 473.531L215.196 468.229L213.572 468.07L213.904 464.678L215.528 464.837L215.847 461.589L219.931 461.989L219.613 465.238L222.288 465.5L221.955 468.892L219.28 468.629L218.755 473.98C218.716 474.378 218.784 474.674 218.958 474.868C219.132 475.062 219.441 475.181 219.887 475.224L221.344 475.367ZM236.876 473.442C236.839 473.824 236.776 474.22 236.688 474.629L227.444 473.723C227.426 474.557 227.627 475.22 228.045 475.711C228.48 476.188 229.04 476.46 229.725 476.527C230.744 476.627 231.495 476.266 231.977 475.446L236.325 475.872C236.016 476.726 235.532 477.474 234.874 478.117C234.233 478.761 233.454 479.24 232.539 479.552C231.624 479.864 230.626 479.967 229.543 479.861C228.237 479.733 227.102 479.34 226.138 478.683C225.173 478.026 224.455 477.151 223.983 476.06C223.512 474.969 223.344 473.731 223.48 472.345C223.615 470.96 224.013 469.777 224.672 468.797C225.346 467.818 226.221 467.1 227.294 466.642C228.368 466.185 229.566 466.021 230.888 466.151C232.177 466.277 233.297 466.66 234.247 467.3C235.198 467.94 235.902 468.789 236.361 469.847C236.836 470.906 237.008 472.105 236.876 473.442ZM232.802 471.957C232.871 471.257 232.686 470.676 232.249 470.215C231.812 469.754 231.235 469.489 230.519 469.418C229.834 469.351 229.233 469.493 228.717 469.844C228.216 470.197 227.874 470.734 227.69 471.456L232.802 471.957ZM243.888 469.862C244.438 469.176 245.091 468.661 245.849 468.318C246.607 467.958 247.425 467.821 248.3 467.907L247.876 472.23L246.754 472.12C245.735 472.02 244.948 472.168 244.395 472.564C243.843 472.944 243.514 473.683 243.406 474.782L242.799 480.968L238.715 480.568L240.022 467.24L244.106 467.64L243.888 469.862ZM264.212 469.612L253.923 488.45L249.529 488.019L253.251 481.535L249.092 468.129L253.654 468.577L255.918 477.215L259.793 469.179L264.212 469.612ZM176.63 493.722L174.985 510.489L170.901 510.089L172.545 493.321L176.63 493.722ZM183.707 511.538C182.544 511.424 181.529 511.123 180.66 510.636C179.791 510.149 179.128 509.537 178.67 508.801C178.213 508.049 177.995 507.24 178.015 506.374L182.052 506.769C182.055 507.236 182.233 507.631 182.587 507.955C182.941 508.279 183.397 508.469 183.954 508.524C184.464 508.574 184.863 508.516 185.152 508.352C185.459 508.173 185.628 507.924 185.66 507.606C185.697 507.223 185.525 506.925 185.145 506.711C184.765 506.481 184.141 506.211 183.271 505.9C182.337 505.584 181.564 505.275 180.95 504.973C180.338 504.656 179.827 504.212 179.417 503.641C179.008 503.055 178.848 502.307 178.937 501.4C179.012 500.635 179.287 499.963 179.762 499.383C180.255 498.788 180.925 498.347 181.773 498.061C182.637 497.776 183.634 497.689 184.765 497.799C186.437 497.963 187.71 498.506 188.584 499.428C189.474 500.351 189.924 501.505 189.933 502.888L186.159 502.518C186.14 502.05 185.969 501.663 185.645 501.358C185.338 501.055 184.905 500.876 184.348 500.821C183.87 500.774 183.494 500.834 183.221 501C182.949 501.15 182.797 501.385 182.766 501.703C182.729 502.085 182.9 502.391 183.279 502.621C183.674 502.853 184.292 503.107 185.134 503.382C186.096 503.734 186.875 504.067 187.471 504.383C188.069 504.683 188.571 505.134 188.978 505.737C189.403 506.325 189.578 507.082 189.503 508.007C189.426 508.787 189.135 509.466 188.628 510.043C188.139 510.606 187.463 511.022 186.6 511.291C185.754 511.562 184.789 511.644 183.707 511.538ZM197.799 494.882L196.065 512.557L191.98 512.156L193.714 494.481L197.799 494.882ZM199.227 506.115C199.361 504.746 199.734 503.568 200.345 502.583C200.972 501.6 201.759 500.873 202.705 500.403C203.652 499.933 204.674 499.752 205.773 499.86C206.712 499.952 207.514 500.224 208.177 500.675C208.856 501.127 209.356 501.683 209.677 502.341L209.862 500.454L213.947 500.855L212.639 514.183L208.555 513.782L208.74 511.895C208.281 512.477 207.675 512.924 206.921 513.236C206.182 513.549 205.344 513.66 204.404 513.568C203.321 513.462 202.361 513.086 201.524 512.441C200.689 511.781 200.059 510.907 199.635 509.82C199.229 508.72 199.093 507.484 199.227 506.115ZM209.209 507.118C209.309 506.099 209.101 505.267 208.585 504.621C208.086 503.978 207.43 503.616 206.618 503.536C205.806 503.456 205.084 503.683 204.453 504.216C203.84 504.735 203.483 505.503 203.383 506.523C203.283 507.542 203.482 508.381 203.98 509.041C204.496 509.686 205.159 510.049 205.971 510.128C206.783 510.208 207.497 509.981 208.112 509.446C208.743 508.913 209.109 508.137 209.209 507.118ZM225.395 501.833C226.956 501.986 228.148 502.617 228.971 503.727C229.812 504.822 230.146 506.254 229.973 508.021L229.209 515.808L225.149 515.41L225.858 508.172C225.946 507.281 225.783 506.565 225.37 506.027C224.956 505.488 224.359 505.18 223.579 505.103C222.799 505.027 222.154 505.213 221.643 505.661C221.133 506.109 220.834 506.779 220.747 507.671L220.037 514.908L215.953 514.508L217.26 501.18L221.344 501.58L221.171 503.348C221.643 502.799 222.245 502.392 222.979 502.127C223.714 501.845 224.519 501.747 225.395 501.833ZM232.249 509.354C232.384 507.985 232.756 506.807 233.368 505.822C233.995 504.839 234.781 504.112 235.728 503.642C236.674 503.172 237.697 502.991 238.795 503.099C239.671 503.185 240.449 503.446 241.13 503.883C241.827 504.321 242.351 504.871 242.704 505.532L243.311 499.346L247.396 499.747L245.662 517.422L241.578 517.021L241.765 515.11C241.32 515.71 240.721 516.166 239.967 516.477C239.229 516.791 238.39 516.901 237.451 516.809C236.352 516.702 235.384 516.325 234.547 515.68C233.711 515.02 233.082 514.146 232.658 513.06C232.251 511.959 232.115 510.723 232.249 509.354ZM242.231 510.357C242.331 509.338 242.123 508.506 241.608 507.86C241.108 507.217 240.453 506.855 239.64 506.775C238.828 506.696 238.107 506.922 237.476 507.455C236.862 507.974 236.505 508.743 236.405 509.762C236.306 510.781 236.505 511.62 237.003 512.28C237.518 512.925 238.182 513.288 238.994 513.368C239.806 513.447 240.52 513.22 241.135 512.685C241.766 512.152 242.131 511.376 242.231 510.357Z" fill="#BDBDBD"/>
<path d="M210.314 127.353L209.993 130.626L203.162 129.956L202.815 133.491L207.926 133.992L207.615 137.169L202.503 136.667L201.838 143.451L197.754 143.05L199.398 126.283L210.314 127.353ZM211.018 137.599C211.152 136.23 211.525 135.052 212.136 134.067C212.763 133.084 213.55 132.357 214.496 131.887C215.443 131.417 216.465 131.236 217.564 131.344C218.503 131.436 219.305 131.708 219.968 132.159C220.647 132.611 221.147 133.167 221.468 133.825L221.653 131.938L225.738 132.339L224.43 145.667L220.346 145.266L220.531 143.379C220.072 143.961 219.466 144.408 218.712 144.72C217.973 145.033 217.135 145.144 216.195 145.052C215.112 144.946 214.152 144.57 213.315 143.925C212.48 143.265 211.85 142.391 211.426 141.305C211.02 140.204 210.884 138.968 211.018 137.599ZM221 138.602C221.1 137.583 220.892 136.751 220.377 136.105C219.877 135.462 219.221 135.1 218.409 135.02C217.597 134.941 216.875 135.167 216.244 135.7C215.631 136.219 215.274 136.988 215.174 138.007C215.074 139.026 215.273 139.865 215.771 140.525C216.287 141.17 216.95 141.533 217.762 141.613C218.575 141.692 219.288 141.465 219.903 140.93C220.534 140.397 220.9 139.621 221 138.602ZM240.982 140.345C240.945 140.727 240.882 141.123 240.793 141.532L231.55 140.626C231.532 141.46 231.732 142.123 232.15 142.614C232.586 143.091 233.146 143.363 233.831 143.43C234.85 143.53 235.601 143.169 236.083 142.348L240.43 142.775C240.121 143.629 239.638 144.377 238.98 145.02C238.338 145.664 237.56 146.143 236.645 146.455C235.73 146.767 234.731 146.87 233.648 146.764C232.343 146.636 231.208 146.243 230.243 145.586C229.279 144.929 228.561 144.054 228.089 142.963C227.617 141.872 227.449 140.633 227.585 139.248C227.721 137.863 228.118 136.68 228.777 135.7C229.452 134.721 230.326 134.003 231.4 133.545C232.474 133.088 233.672 132.924 234.993 133.054C236.283 133.18 237.403 133.563 238.353 134.203C239.303 134.843 240.008 135.692 240.467 136.75C240.941 137.809 241.113 139.008 240.982 140.345ZM236.908 138.86C236.976 138.16 236.792 137.579 236.355 137.118C235.918 136.657 235.341 136.392 234.625 136.321C233.94 136.254 233.339 136.396 232.822 136.747C232.322 137.1 231.979 137.637 231.796 138.359L236.908 138.86ZM247.994 136.765C248.544 136.079 249.197 135.564 249.954 135.221C250.713 134.861 251.53 134.724 252.406 134.81L251.982 139.133L250.859 139.023C249.84 138.923 249.054 139.071 248.501 139.467C247.949 139.847 247.619 140.586 247.512 141.685L246.905 147.871L242.82 147.471L244.128 134.143L248.212 134.543L247.994 136.765ZM256.893 133.996C256.176 133.926 255.607 133.661 255.186 133.202C254.782 132.728 254.611 132.181 254.672 131.56C254.734 130.923 255.009 130.419 255.495 130.049C255.999 129.664 256.609 129.507 257.326 129.577C258.027 129.646 258.579 129.917 258.982 130.391C259.404 130.85 259.583 131.398 259.521 132.035C259.46 132.656 259.177 133.159 258.673 133.544C258.187 133.914 257.593 134.065 256.893 133.996ZM258.787 135.58L257.48 148.909L253.395 148.508L254.703 135.18L258.787 135.58ZM274.036 143.587C273.999 143.969 273.936 144.365 273.847 144.775L264.604 143.868C264.586 144.702 264.787 145.365 265.205 145.856C265.64 146.333 266.2 146.605 266.885 146.672C267.904 146.772 268.655 146.411 269.137 145.591L273.484 146.017C273.176 146.871 272.692 147.619 272.034 148.262C271.392 148.907 270.614 149.385 269.699 149.697C268.784 150.009 267.785 150.112 266.703 150.006C265.397 149.878 264.262 149.485 263.297 148.828C262.333 148.171 261.615 147.296 261.143 146.205C260.671 145.114 260.504 143.876 260.639 142.49C260.775 141.105 261.173 139.922 261.831 138.942C262.506 137.963 263.381 137.245 264.454 136.787C265.528 136.33 266.726 136.166 268.047 136.296C269.337 136.422 270.457 136.806 271.407 137.445C272.357 138.085 273.062 138.934 273.521 139.992C273.996 141.051 274.167 142.25 274.036 143.587ZM269.962 142.102C270.031 141.402 269.846 140.821 269.409 140.36C268.972 139.899 268.395 139.634 267.679 139.563C266.994 139.496 266.393 139.638 265.877 139.99C265.376 140.342 265.034 140.88 264.85 141.601L269.962 142.102ZM281.693 133.438L279.959 151.113L275.875 150.713L277.608 133.038L281.693 133.438ZM283.121 144.671C283.255 143.302 283.628 142.125 284.239 141.14C284.866 140.156 285.653 139.429 286.599 138.96C287.546 138.49 288.568 138.309 289.667 138.416C290.606 138.509 291.408 138.78 292.071 139.231C292.75 139.683 293.25 140.239 293.571 140.897L293.756 139.011L297.841 139.411L296.534 152.739L292.449 152.339L292.634 150.452C292.175 151.034 291.569 151.481 290.815 151.792C290.077 152.106 289.238 152.216 288.298 152.124C287.215 152.018 286.255 151.643 285.418 150.998C284.583 150.337 283.953 149.463 283.529 148.377C283.123 147.276 282.987 146.041 283.121 144.671ZM293.103 145.675C293.203 144.655 292.995 143.823 292.48 143.178C291.98 142.534 291.324 142.172 290.512 142.093C289.7 142.013 288.978 142.24 288.347 142.772C287.734 143.291 287.377 144.06 287.277 145.079C287.177 146.098 287.376 146.938 287.874 147.597C288.39 148.243 289.053 148.605 289.865 148.685C290.678 148.765 291.391 148.537 292.006 148.003C292.637 147.47 293.003 146.694 293.103 145.675ZM309.289 140.389C310.85 140.542 312.042 141.174 312.865 142.284C313.706 143.379 314.04 144.81 313.867 146.578L313.103 154.364L309.043 153.966L309.752 146.729C309.84 145.837 309.677 145.122 309.264 144.583C308.85 144.044 308.253 143.736 307.473 143.66C306.693 143.583 306.048 143.769 305.537 144.217C305.027 144.666 304.728 145.336 304.641 146.228L303.931 153.465L299.847 153.064L301.154 139.736L305.238 140.137L305.065 141.904C305.537 141.356 306.139 140.949 306.873 140.683C307.608 140.401 308.413 140.303 309.289 140.389ZM316.144 147.91C316.278 146.541 316.651 145.364 317.262 144.379C317.889 143.395 318.675 142.669 319.622 142.199C320.568 141.729 321.591 141.548 322.689 141.656C323.565 141.741 324.343 142.003 325.024 142.439C325.721 142.877 326.245 143.427 326.599 144.089L327.205 137.902L331.29 138.303L329.556 155.978L325.472 155.578L325.659 153.667C325.214 154.266 324.615 154.722 323.861 155.034C323.123 155.347 322.284 155.458 321.345 155.366C320.246 155.258 319.278 154.882 318.441 154.237C317.605 153.576 316.976 152.703 316.552 151.616C316.145 150.515 316.009 149.28 316.144 147.91ZM326.125 148.914C326.225 147.894 326.017 147.062 325.502 146.417C325.002 145.773 324.347 145.411 323.535 145.332C322.722 145.252 322.001 145.479 321.37 146.012C320.756 146.53 320.4 147.299 320.3 148.318C320.2 149.337 320.399 150.177 320.897 150.836C321.412 151.482 322.076 151.844 322.888 151.924C323.7 152.004 324.414 151.776 325.029 151.242C325.66 150.709 326.025 149.933 326.125 148.914Z" fill="#BDBDBD"/>
<path d="M617.864 130.121L618.341 133.374L613.924 134.021L615.889 147.438L611.828 148.033L609.863 134.616L605.446 135.263L604.97 132.01L617.864 130.121ZM634.189 137.772C634.245 138.152 634.279 138.552 634.292 138.97L625.102 140.316C625.285 141.13 625.639 141.725 626.163 142.101C626.701 142.459 627.31 142.588 627.991 142.488C629.004 142.34 629.646 141.809 629.916 140.896L634.238 140.263C634.144 141.167 633.855 142.009 633.372 142.792C632.904 143.572 632.263 144.223 631.451 144.747C630.638 145.27 629.693 145.611 628.617 145.768C627.319 145.958 626.122 145.851 625.028 145.445C623.934 145.039 623.026 144.363 622.306 143.418C621.585 142.472 621.124 141.311 620.922 139.934C620.72 138.556 620.821 137.313 621.225 136.202C621.644 135.09 622.319 134.182 623.251 133.48C624.183 132.777 625.307 132.33 626.62 132.138C627.903 131.95 629.082 132.052 630.158 132.444C631.234 132.836 632.123 133.491 632.823 134.407C633.539 135.321 633.994 136.443 634.189 137.772ZM629.877 137.312C629.775 136.616 629.456 136.096 628.921 135.754C628.386 135.412 627.762 135.293 627.049 135.398C626.369 135.498 625.82 135.78 625.403 136.245C625.002 136.708 624.799 137.312 624.795 138.057L629.877 137.312ZM640.132 132.609C640.501 131.811 641.011 131.154 641.663 130.638C642.313 130.106 643.073 129.777 643.944 129.649L644.573 133.947L643.457 134.111C642.444 134.259 641.717 134.592 641.275 135.109C640.831 135.611 640.689 136.408 640.849 137.5L641.75 143.651L637.689 144.245L635.748 130.995L639.809 130.4L640.132 132.609ZM650.646 131.069C651.014 130.271 651.524 129.614 652.176 129.098C652.826 128.566 653.587 128.237 654.457 128.109L655.087 132.407L653.971 132.571C652.957 132.719 652.23 133.052 651.788 133.57C651.344 134.071 651.202 134.868 651.362 135.961L652.263 142.111L648.202 142.706L646.262 129.455L650.322 128.86L650.646 131.069ZM664.775 140.473C663.477 140.663 662.265 140.557 661.139 140.156C660.029 139.753 659.098 139.081 658.345 138.14C657.609 137.197 657.14 136.036 656.938 134.659C656.739 133.297 656.865 132.058 657.315 130.941C657.764 129.808 658.47 128.888 659.434 128.181C660.397 127.474 661.528 127.025 662.827 126.835C664.125 126.645 665.337 126.75 666.463 127.152C667.589 127.553 668.529 128.231 669.284 129.188C670.036 130.129 670.512 131.28 670.711 132.642C670.911 134.003 670.778 135.252 670.314 136.387C669.863 137.504 669.148 138.417 668.168 139.127C667.204 139.834 666.073 140.283 664.775 140.473ZM664.261 136.958C665.036 136.845 665.652 136.463 666.106 135.815C666.577 135.164 666.735 134.308 666.579 133.247C666.424 132.186 666.035 131.41 665.414 130.919C664.808 130.426 664.117 130.236 663.341 130.35C662.55 130.466 661.934 130.847 661.496 131.493C661.054 132.124 660.912 132.977 661.07 134.054C661.225 135.115 661.598 135.893 662.188 136.388C662.794 136.882 663.485 137.072 664.261 136.958ZM676.636 127.263C677.004 126.465 677.514 125.808 678.166 125.292C678.816 124.76 679.576 124.431 680.447 124.303L681.076 128.601L679.96 128.765C678.947 128.913 678.22 129.246 677.778 129.763C677.334 130.265 677.192 131.062 677.352 132.154L678.253 138.305L674.192 138.9L672.251 125.649L676.312 125.054L676.636 127.263ZM608.183 169.944L610.625 186.614L606.564 187.209L605.1 177.212L602.836 187.755L599.559 188.235L594.339 178.763L595.807 188.785L591.746 189.379L589.305 172.709L594.102 172.007L600.47 182.862L603.41 170.643L608.183 169.944ZM619.961 185.441C618.662 185.631 617.45 185.526 616.324 185.125C615.214 184.721 614.283 184.049 613.531 183.108C612.794 182.165 612.325 181.005 612.123 179.628C611.924 178.266 612.05 177.027 612.501 175.91C612.949 174.777 613.655 173.857 614.619 173.15C615.583 172.442 616.714 171.994 618.012 171.804C619.31 171.614 620.522 171.719 621.648 172.12C622.774 172.521 623.714 173.2 624.469 174.157C625.221 175.098 625.697 176.249 625.897 177.61C626.096 178.972 625.963 180.22 625.499 181.356C625.048 182.473 624.333 183.386 623.353 184.095C622.39 184.803 621.259 185.251 619.961 185.441ZM619.446 181.927C620.222 181.813 620.837 181.432 621.292 180.783C621.762 180.132 621.92 179.276 621.765 178.216C621.609 177.155 621.221 176.379 620.599 175.888C619.993 175.394 619.302 175.205 618.527 175.318C617.735 175.434 617.12 175.815 616.681 176.462C616.24 177.092 616.098 177.946 616.255 179.022C616.411 180.083 616.783 180.861 617.373 181.357C617.979 181.85 618.67 182.04 619.446 181.927ZM640.521 168.701L642.462 181.952L638.401 182.547L638.137 180.742C637.811 181.388 637.318 181.945 636.659 182.414C636.014 182.864 635.264 183.152 634.409 183.277C633.396 183.425 632.469 183.335 631.628 183.005C630.785 182.659 630.087 182.09 629.535 181.298C628.982 180.506 628.621 179.532 628.452 178.376L627.318 170.635L631.355 170.044L632.409 177.239C632.539 178.125 632.869 178.78 633.4 179.204C633.931 179.627 634.584 179.782 635.36 179.669C636.152 179.553 636.741 179.216 637.128 178.658C637.515 178.1 637.644 177.378 637.514 176.491L636.46 169.296L640.521 168.701ZM651.847 166.897C653.399 166.67 654.708 166.995 655.774 167.874C656.854 168.735 657.523 170.044 657.78 171.801L658.914 179.542L654.877 180.134L653.823 172.938C653.694 172.052 653.363 171.397 652.832 170.973C652.301 170.55 651.648 170.395 650.872 170.508C650.096 170.622 649.515 170.958 649.128 171.516C648.74 172.074 648.612 172.796 648.742 173.683L649.795 180.878L645.735 181.473L643.794 168.222L647.855 167.627L648.112 169.384C648.438 168.738 648.925 168.198 649.573 167.764C650.218 167.313 650.976 167.024 651.847 166.897ZM668.973 174.552L669.477 177.995L667.411 178.298C665.939 178.514 664.739 178.325 663.812 177.734C662.882 177.126 662.297 176.007 662.059 174.376L661.286 169.104L659.672 169.341L659.178 165.969L660.793 165.732L660.32 162.503L664.38 161.908L664.853 165.138L667.513 164.748L668.007 168.12L665.347 168.51L666.126 173.829C666.184 174.225 666.321 174.496 666.536 174.642C666.752 174.788 667.081 174.829 667.524 174.764L668.973 174.552ZM670.314 171.081C670.115 169.72 670.193 168.487 670.549 167.384C670.921 166.279 671.509 165.384 672.315 164.7C673.12 164.016 674.069 163.594 675.161 163.434C676.095 163.297 676.938 163.368 677.691 163.646C678.459 163.921 679.078 164.34 679.548 164.902L679.274 163.026L683.334 162.431L685.275 175.682L681.214 176.276L680.939 174.4C680.634 175.076 680.153 175.656 679.496 176.14C678.855 176.622 678.068 176.931 677.134 177.068C676.057 177.226 675.035 177.092 674.067 176.668C673.097 176.228 672.276 175.532 671.603 174.579C670.943 173.609 670.514 172.443 670.314 171.081ZM680.244 169.651C680.095 168.638 679.693 167.88 679.038 167.378C678.398 166.873 677.674 166.68 676.867 166.798C676.059 166.917 675.414 167.31 674.929 167.98C674.459 168.631 674.298 169.463 674.446 170.476C674.595 171.489 674.99 172.256 675.632 172.776C676.288 173.279 677.019 173.471 677.827 173.352C678.634 173.234 679.272 172.842 679.74 172.175C680.224 171.506 680.392 170.664 680.244 169.651ZM688.469 160.272C687.756 160.377 687.14 160.257 686.621 159.912C686.115 159.55 685.817 159.06 685.726 158.442C685.634 157.809 685.779 157.254 686.162 156.778C686.558 156.283 687.113 155.983 687.825 155.879C688.522 155.777 689.123 155.907 689.629 156.27C690.148 156.614 690.454 157.103 690.547 157.736C690.637 158.354 690.484 158.91 690.088 159.404C689.705 159.881 689.165 160.17 688.469 160.272ZM690.689 161.354L692.629 174.605L688.569 175.199L686.628 161.949L690.689 161.354ZM702.041 159.546C703.592 159.319 704.901 159.644 705.968 160.523C707.048 161.384 707.717 162.693 707.974 164.45L709.108 172.191L705.071 172.783L704.017 165.587C703.887 164.701 703.557 164.046 703.026 163.622C702.495 163.199 701.841 163.044 701.066 163.157C700.29 163.271 699.709 163.607 699.321 164.165C698.934 164.723 698.805 165.445 698.935 166.332L699.989 173.527L695.928 174.122L693.988 160.871L698.048 160.276L698.306 162.033C698.632 161.387 699.118 160.847 699.766 160.413C700.412 159.962 701.17 159.673 702.041 159.546ZM626.952 320.817L627.428 324.07L623.012 324.717L624.977 338.134L620.916 338.729L618.951 325.312L614.534 325.959L614.058 322.705L626.952 320.817ZM643.383 321.904L637.933 342.664L633.564 343.304L635.616 336.115L628.351 324.105L632.887 323.441L637.164 331.28L638.989 322.547L643.383 321.904ZM649.591 323.25C649.96 322.452 650.47 321.795 651.122 321.279C651.772 320.748 652.532 320.418 653.403 320.291L654.032 324.589L652.916 324.752C651.903 324.901 651.175 325.233 650.734 325.751C650.29 326.253 650.148 327.05 650.308 328.142L651.208 334.292L647.148 334.887L645.207 321.636L649.268 321.042L649.591 323.25ZM655.88 326.816C655.681 325.455 655.759 324.223 656.115 323.119C656.487 322.014 657.075 321.119 657.881 320.435C658.686 319.751 659.635 319.329 660.727 319.169C661.661 319.033 662.504 319.103 663.257 319.381C664.025 319.657 664.644 320.075 665.114 320.637L664.839 318.761L668.9 318.166L670.841 331.417L666.78 332.012L666.505 330.136C666.2 330.811 665.719 331.391 665.062 331.875C664.421 332.357 663.634 332.667 662.7 332.803C661.623 332.961 660.601 332.828 659.633 332.404C658.663 331.963 657.842 331.267 657.169 330.315C656.509 329.344 656.079 328.178 655.88 326.816ZM665.81 325.386C665.661 324.373 665.259 323.616 664.604 323.113C663.964 322.609 663.24 322.415 662.433 322.534C661.625 322.652 660.98 323.046 660.495 323.715C660.025 324.366 659.864 325.198 660.012 326.211C660.16 327.224 660.556 327.991 661.198 328.512C661.854 329.014 662.585 329.206 663.393 329.088C664.2 328.97 664.838 328.577 665.306 327.91C665.79 327.241 665.958 326.4 665.81 325.386ZM680.247 316.359C681.798 316.132 683.107 316.458 684.174 317.336C685.254 318.197 685.923 319.506 686.18 321.263L687.314 329.005L683.277 329.596L682.223 322.401C682.093 321.514 681.763 320.859 681.232 320.435C680.701 320.012 680.048 319.857 679.272 319.971C678.496 320.084 677.915 320.42 677.528 320.978C677.14 321.536 677.012 322.258 677.142 323.145L678.195 330.34L674.135 330.935L672.194 317.684L676.255 317.089L676.512 318.847C676.838 318.201 677.325 317.66 677.973 317.226C678.618 316.776 679.376 316.487 680.247 316.359ZM696.604 313.964C698.156 313.736 699.465 314.062 700.531 314.941C701.612 315.801 702.28 317.11 702.538 318.868L703.671 326.609L699.634 327.2L698.581 320.005C698.451 319.118 698.12 318.463 697.589 318.04C697.059 317.616 696.405 317.461 695.629 317.575C694.854 317.689 694.272 318.024 693.885 318.582C693.498 319.14 693.369 319.863 693.499 320.749L694.553 327.944L690.492 328.539L688.551 315.288L692.612 314.694L692.869 316.451C693.195 315.805 693.682 315.265 694.33 314.83C694.976 314.38 695.734 314.091 696.604 313.964ZM706.749 311.216C706.037 311.321 705.421 311.201 704.902 310.856C704.396 310.494 704.098 310.004 704.007 309.387C703.914 308.753 704.06 308.198 704.443 307.722C704.839 307.227 705.393 306.928 706.106 306.823C706.802 306.721 707.404 306.852 707.91 307.214C708.429 307.558 708.735 308.047 708.828 308.681C708.918 309.298 708.765 309.854 708.369 310.349C707.986 310.825 707.446 311.114 706.749 311.216ZM708.969 312.298L710.91 325.549L706.849 326.144L704.909 312.893L708.969 312.298ZM712.428 318.535C712.228 317.173 712.307 315.941 712.663 314.838C713.034 313.732 713.623 312.838 714.428 312.154C715.234 311.47 716.183 311.048 717.275 310.888C718.209 310.751 719.052 310.822 719.804 311.099C720.572 311.375 721.191 311.794 721.662 312.356L721.387 310.48L725.448 309.885L727.388 323.136L723.328 323.73L723.053 321.854C722.748 322.53 722.267 323.109 721.61 323.594C720.969 324.076 720.181 324.385 719.247 324.522C718.171 324.68 717.149 324.546 716.181 324.122C715.211 323.682 714.389 322.986 713.716 322.033C713.057 321.062 712.627 319.896 712.428 318.535ZM722.357 317.105C722.209 316.092 721.807 315.334 721.151 314.832C720.511 314.327 719.788 314.134 718.98 314.252C718.173 314.37 717.527 314.764 717.043 315.433C716.572 316.084 716.411 316.917 716.56 317.93C716.708 318.943 717.103 319.71 717.746 320.23C718.401 320.732 719.133 320.924 719.94 320.806C720.748 320.688 721.385 320.295 721.854 319.629C722.338 318.959 722.506 318.118 722.357 317.105ZM648.747 457.097L645.275 474.633L640.193 475.378L631.839 459.573L636.161 458.94L642.136 470.921L644.449 457.727L648.747 457.097ZM653.141 458.54C652.429 458.644 651.813 458.524 651.294 458.18C650.788 457.817 650.49 457.327 650.399 456.71C650.307 456.076 650.452 455.521 650.835 455.045C651.231 454.55 651.786 454.251 652.498 454.146C653.195 454.044 653.796 454.175 654.302 454.537C654.821 454.882 655.127 455.37 655.22 456.004C655.31 456.621 655.157 457.177 654.761 457.672C654.378 458.148 653.838 458.438 653.141 458.54ZM655.362 459.621L657.302 472.872L653.242 473.467L651.301 460.216L655.362 459.621ZM663.045 460.752C663.413 459.954 663.923 459.297 664.575 458.781C665.225 458.25 665.985 457.92 666.856 457.792L667.486 462.091L666.369 462.254C665.356 462.402 664.629 462.735 664.187 463.253C663.743 463.754 663.601 464.551 663.761 465.644L664.662 471.794L660.601 472.389L658.661 459.138L662.721 458.543L663.045 460.752ZM677.996 466.324L678.5 469.767L676.434 470.07C674.962 470.286 673.762 470.098 672.834 469.506C671.904 468.898 671.32 467.779 671.081 466.148L670.309 460.877L668.694 461.113L668.2 457.741L669.815 457.505L669.342 454.275L673.403 453.68L673.876 456.91L676.536 456.52L677.029 459.892L674.37 460.282L675.149 465.601C675.207 465.997 675.343 466.268 675.559 466.414C675.774 466.561 676.104 466.601 676.547 466.536L677.996 466.324ZM692.262 454.217L694.202 467.468L690.142 468.063L689.877 466.258C689.552 466.904 689.059 467.461 688.4 467.929C687.754 468.38 687.004 468.668 686.149 468.793C685.136 468.941 684.209 468.85 683.369 468.521C682.526 468.175 681.828 467.606 681.275 466.814C680.723 466.022 680.362 465.048 680.192 463.892L679.059 456.151L683.096 455.56L684.149 462.755C684.279 463.641 684.61 464.296 685.141 464.72C685.672 465.143 686.325 465.298 687.101 465.185C687.892 465.069 688.482 464.732 688.869 464.174C689.256 463.616 689.385 462.894 689.255 462.007L688.201 454.812L692.262 454.217ZM699.87 455.019C700.176 454.344 700.649 453.765 701.29 453.283C701.93 452.801 702.718 452.492 703.652 452.355C704.744 452.195 705.774 452.327 706.742 452.751C707.71 453.176 708.522 453.865 709.18 454.82C709.853 455.773 710.289 456.93 710.488 458.291C710.688 459.652 710.603 460.894 710.233 462.015C709.877 463.118 709.298 464.02 708.495 464.72C707.689 465.404 706.741 465.826 705.648 465.986C704.73 466.12 703.887 466.049 703.119 465.774C702.367 465.496 701.749 465.085 701.265 464.542L702.461 472.71L698.4 473.305L695.535 453.738L699.595 453.143L699.87 455.019ZM706.356 458.896C706.208 457.883 705.807 457.133 705.154 456.647C704.514 456.142 703.782 455.95 702.959 456.071C702.152 456.189 701.506 456.583 701.022 457.252C700.554 457.919 700.394 458.759 700.542 459.772C700.69 460.785 701.084 461.544 701.724 462.049C702.38 462.551 703.112 462.743 703.919 462.625C704.726 462.506 705.372 462.113 705.856 461.443C706.338 460.758 706.505 459.909 706.356 458.896ZM725.438 455.908C725.493 456.288 725.528 456.687 725.54 457.105L716.35 458.451C716.534 459.265 716.888 459.86 717.412 460.236C717.95 460.594 718.559 460.723 719.24 460.623C720.253 460.475 720.895 459.944 721.165 459.032L725.487 458.399C725.393 459.302 725.104 460.145 724.621 460.927C724.153 461.707 723.512 462.359 722.7 462.882C721.887 463.405 720.942 463.746 719.866 463.903C718.568 464.094 717.371 463.986 716.277 463.58C715.183 463.174 714.275 462.499 713.554 461.553C712.834 460.608 712.373 459.446 712.171 458.069C711.969 456.692 712.07 455.448 712.473 454.338C712.893 453.225 713.568 452.318 714.5 451.615C715.432 450.913 716.555 450.465 717.869 450.273C719.152 450.085 720.331 450.187 721.407 450.579C722.483 450.972 723.372 451.626 724.072 452.542C724.788 453.456 725.243 454.578 725.438 455.908ZM721.126 455.448C721.024 454.751 720.705 454.232 720.17 453.89C719.635 453.548 719.011 453.429 718.298 453.533C717.618 453.633 717.069 453.915 716.652 454.381C716.251 454.844 716.048 455.447 716.044 456.192L721.126 455.448ZM735.819 457.856L736.323 461.299L734.257 461.602C732.785 461.817 731.585 461.629 730.657 461.037C729.727 460.43 729.143 459.311 728.904 457.68L728.132 452.408L726.517 452.645L726.024 449.273L727.638 449.036L727.165 445.807L731.226 445.212L731.699 448.441L734.359 448.052L734.853 451.424L732.193 451.813L732.972 457.133C733.03 457.529 733.167 457.8 733.382 457.946C733.598 458.092 733.927 458.133 734.37 458.068L735.819 457.856ZM744.359 460.316C743.204 460.485 742.146 460.438 741.185 460.175C740.225 459.911 739.434 459.477 738.812 458.873C738.187 458.253 737.781 457.52 737.592 456.674L741.605 456.087C741.72 456.539 741.988 456.88 742.41 457.109C742.832 457.338 743.32 457.412 743.874 457.331C744.38 457.257 744.754 457.105 744.996 456.876C745.25 456.628 745.355 456.346 745.308 456.029C745.253 455.65 745.014 455.401 744.593 455.285C744.169 455.153 743.498 455.041 742.579 454.95C741.597 454.867 740.771 454.753 740.103 454.609C739.433 454.448 738.83 454.14 738.295 453.685C737.757 453.214 737.422 452.527 737.289 451.625C737.178 450.865 737.283 450.146 737.604 449.469C737.939 448.773 738.483 448.184 739.237 447.701C740.007 447.217 740.954 446.892 742.078 446.727C743.741 446.484 745.107 446.704 746.177 447.388C747.264 448.07 747.978 449.081 748.319 450.422L744.568 450.971C744.437 450.522 744.178 450.188 743.79 449.97C743.418 449.749 742.955 449.679 742.401 449.761C741.926 449.83 741.576 449.978 741.351 450.206C741.123 450.417 741.032 450.681 741.078 450.997C741.134 451.377 741.374 451.633 741.797 451.765C742.237 451.895 742.898 451.992 743.78 452.057C744.799 452.166 745.636 452.303 746.29 452.466C746.942 452.613 747.539 452.93 748.079 453.416C748.633 453.885 748.985 454.577 749.135 455.493C749.249 456.269 749.129 456.998 748.776 457.68C748.437 458.345 747.881 458.911 747.109 459.38C746.352 459.846 745.436 460.159 744.359 460.316ZM666.784 510.059C665.565 510.237 664.443 510.199 663.42 509.945C662.396 509.69 661.534 509.218 660.835 508.528C660.151 507.836 659.714 506.946 659.522 505.858L663.844 505.225C663.998 505.834 664.281 506.277 664.694 506.556C665.104 506.82 665.603 506.908 666.188 506.823C666.79 506.735 667.245 506.53 667.554 506.21C667.861 505.874 667.978 505.461 667.906 504.97C667.846 504.559 667.653 504.239 667.329 504.012C667.021 503.782 666.648 503.61 666.211 503.496C665.789 503.38 665.19 503.266 664.414 503.153C663.289 502.978 662.361 502.774 661.632 502.542C660.902 502.309 660.245 501.904 659.659 501.327C659.073 500.75 658.704 499.939 658.551 498.894C658.324 497.342 658.708 496.049 659.705 495.014C660.699 493.962 662.098 493.305 663.903 493.04C665.739 492.771 667.285 492.998 668.538 493.72C669.79 494.426 670.57 495.557 670.879 497.112L666.486 497.756C666.375 497.222 666.116 496.832 665.708 496.584C665.297 496.321 664.807 496.231 664.237 496.314C663.746 496.386 663.37 496.579 663.109 496.892C662.845 497.189 662.749 497.583 662.821 498.074C662.9 498.612 663.215 498.995 663.765 499.222C664.316 499.448 665.155 499.657 666.283 499.847C667.412 500.054 668.334 500.275 669.048 500.51C669.777 500.742 670.434 501.139 671.017 501.701C671.601 502.262 671.965 503.042 672.111 504.039C672.251 504.989 672.132 505.888 671.754 506.735C671.393 507.58 670.787 508.3 669.936 508.893C669.085 509.487 668.034 509.875 666.784 510.059ZM678.088 496.614C678.394 495.939 678.867 495.36 679.508 494.878C680.149 494.397 680.936 494.087 681.87 493.95C682.963 493.79 683.993 493.923 684.96 494.347C685.928 494.771 686.74 495.461 687.398 496.415C688.071 497.368 688.507 498.525 688.707 499.886C688.906 501.248 688.821 502.489 688.452 503.611C688.096 504.714 687.516 505.615 686.713 506.315C685.908 506.999 684.959 507.421 683.866 507.581C682.948 507.715 682.105 507.645 681.337 507.369C680.585 507.091 679.967 506.681 679.483 506.137L680.679 514.306L676.619 514.9L673.753 495.333L677.814 494.738L678.088 496.614ZM684.575 500.491C684.426 499.478 684.025 498.728 683.372 498.242C682.732 497.737 682.001 497.545 681.177 497.666C680.37 497.784 679.724 498.178 679.24 498.847C678.772 499.514 678.612 500.354 678.76 501.367C678.909 502.38 679.303 503.139 679.943 503.644C680.598 504.146 681.33 504.338 682.137 504.22C682.945 504.102 683.59 503.708 684.074 503.039C684.556 502.354 684.723 501.505 684.575 500.491ZM690.386 499.64C690.186 498.279 690.265 497.047 690.62 495.943C690.992 494.838 691.581 493.943 692.386 493.259C693.192 492.575 694.14 492.153 695.233 491.993C696.167 491.857 697.01 491.927 697.762 492.205C698.53 492.481 699.149 492.899 699.62 493.461L699.345 491.585L703.406 490.99L705.346 504.241L701.286 504.836L701.011 502.96C700.705 503.635 700.224 504.215 699.568 504.699C698.927 505.181 698.139 505.491 697.205 505.627C696.129 505.785 695.107 505.652 694.139 505.228C693.169 504.787 692.347 504.091 691.674 503.139C691.015 502.168 690.585 501.002 690.386 499.64ZM700.315 498.21C700.167 497.197 699.765 496.44 699.109 495.937C698.469 495.433 697.746 495.239 696.938 495.358C696.131 495.476 695.485 495.87 695.001 496.539C694.53 497.19 694.369 498.022 694.518 499.035C694.666 500.049 695.061 500.815 695.703 501.336C696.359 501.838 697.091 502.03 697.898 501.912C698.705 501.794 699.343 501.401 699.812 500.734C700.296 500.065 700.464 499.224 700.315 498.21ZM706.862 497.252C706.661 495.874 706.762 494.631 707.165 493.52C707.584 492.408 708.252 491.502 709.168 490.801C710.1 490.099 711.215 489.653 712.513 489.463C714.176 489.219 715.625 489.452 716.86 490.16C718.112 490.866 719.028 491.985 719.608 493.517L715.286 494.15C714.773 493.19 713.995 492.787 712.95 492.94C712.206 493.049 711.655 493.429 711.298 494.079C710.938 494.714 710.837 495.57 710.994 496.646C711.152 497.723 711.495 498.522 712.024 499.043C712.551 499.548 713.187 499.746 713.931 499.637C714.976 499.484 715.606 498.874 715.822 497.807L720.143 497.174C720.022 498.777 719.465 500.104 718.471 501.155C717.476 502.206 716.156 502.852 714.51 503.093C713.212 503.283 712.015 503.175 710.921 502.77C709.842 502.362 708.943 501.685 708.222 500.739C707.517 499.792 707.064 498.629 706.862 497.252ZM734.863 492.933C734.919 493.312 734.953 493.712 734.966 494.13L725.776 495.476C725.96 496.29 726.314 496.885 726.838 497.261C727.375 497.619 727.985 497.748 728.665 497.648C729.679 497.5 730.32 496.969 730.591 496.057L734.913 495.424C734.819 496.327 734.53 497.17 734.046 497.952C733.578 498.732 732.938 499.384 732.125 499.907C731.312 500.43 730.368 500.771 729.291 500.928C727.993 501.118 726.797 501.011 725.703 500.605C724.608 500.199 723.701 499.524 722.98 498.578C722.259 497.633 721.798 496.471 721.597 495.094C721.395 493.716 721.496 492.473 721.899 491.363C722.318 490.25 722.994 489.343 723.926 488.64C724.858 487.938 725.981 487.49 727.295 487.298C728.577 487.11 729.757 487.212 730.833 487.604C731.909 487.997 732.797 488.651 733.497 489.567C734.213 490.481 734.669 491.603 734.863 492.933ZM730.551 492.473C730.449 491.776 730.131 491.257 729.595 490.915C729.06 490.573 728.436 490.454 727.724 490.558C727.043 490.658 726.494 490.94 726.077 491.406C725.676 491.869 725.474 492.472 725.469 493.217L730.551 492.473ZM665.788 548.61C664.569 548.788 663.448 548.75 662.424 548.496C661.401 548.242 660.539 547.769 659.84 547.079C659.156 546.387 658.719 545.497 658.527 544.409L662.849 543.777C663.003 544.385 663.286 544.828 663.699 545.107C664.109 545.371 664.607 545.459 665.193 545.374C665.795 545.286 666.25 545.081 666.559 544.761C666.865 544.425 666.983 544.012 666.911 543.521C666.851 543.11 666.658 542.79 666.334 542.563C666.025 542.333 665.653 542.161 665.215 542.047C664.794 541.931 664.195 541.817 663.419 541.704C662.294 541.529 661.366 541.326 660.637 541.093C659.907 540.86 659.25 540.455 658.664 539.878C658.078 539.301 657.709 538.49 657.556 537.445C657.328 535.893 657.713 534.6 658.71 533.565C659.704 532.513 661.103 531.856 662.908 531.591C664.744 531.322 666.289 531.549 667.543 532.271C668.795 532.977 669.575 534.108 669.884 535.664L665.491 536.307C665.38 535.773 665.121 535.383 664.713 535.135C664.302 534.872 663.812 534.782 663.242 534.866C662.751 534.937 662.375 535.13 662.114 535.443C661.85 535.74 661.754 536.135 661.826 536.625C661.905 537.164 662.22 537.546 662.77 537.773C663.321 537.999 664.16 538.208 665.287 538.398C666.417 538.605 667.339 538.826 668.053 539.061C668.782 539.293 669.439 539.691 670.022 540.252C670.606 540.813 670.97 541.593 671.116 542.59C671.255 543.54 671.136 544.439 670.759 545.286C670.398 546.132 669.792 546.851 668.941 547.445C668.09 548.038 667.039 548.426 665.788 548.61ZM681.579 542.61L682.084 546.053L680.018 546.356C678.545 546.572 677.345 546.383 676.418 545.792C675.488 545.184 674.904 544.065 674.665 542.434L673.893 537.162L672.278 537.399L671.784 534.027L673.399 533.79L672.926 530.561L676.987 529.966L677.46 533.196L680.119 532.806L680.613 536.178L677.953 536.568L678.733 541.887C678.79 542.283 678.927 542.554 679.143 542.7C679.358 542.846 679.688 542.887 680.131 542.822L681.579 542.61ZM682.921 539.139C682.721 537.778 682.799 536.545 683.155 535.442C683.527 534.337 684.116 533.442 684.921 532.758C685.726 532.074 686.675 531.652 687.768 531.492C688.702 531.355 689.545 531.426 690.297 531.704C691.065 531.979 691.684 532.398 692.155 532.96L691.88 531.084L695.94 530.489L697.881 543.74L693.82 544.334L693.546 542.458C693.24 543.134 692.759 543.714 692.102 544.198C691.462 544.68 690.674 544.989 689.74 545.126C688.664 545.284 687.641 545.15 686.674 544.726C685.704 544.286 684.882 543.59 684.209 542.637C683.549 541.667 683.12 540.501 682.921 539.139ZM692.85 537.709C692.702 536.696 692.3 535.938 691.644 535.436C691.004 534.931 690.28 534.738 689.473 534.856C688.666 534.975 688.02 535.368 687.536 536.038C687.065 536.689 686.904 537.521 687.052 538.534C687.201 539.547 687.596 540.314 688.238 540.834C688.894 541.337 689.626 541.529 690.433 541.41C691.24 541.292 691.878 540.9 692.346 540.233C692.831 539.564 692.998 538.722 692.85 537.709ZM708.056 538.733L708.56 542.176L706.494 542.478C705.022 542.694 703.822 542.506 702.895 541.914C701.965 541.306 701.38 540.187 701.141 538.557L700.369 533.285L698.755 533.521L698.261 530.149L699.876 529.913L699.403 526.683L703.463 526.089L703.936 529.318L706.596 528.929L707.09 532.301L704.43 532.69L705.209 538.009C705.267 538.405 705.404 538.676 705.619 538.823C705.835 538.969 706.164 539.01 706.607 538.945L708.056 538.733ZM711.078 526.865C710.366 526.97 709.75 526.85 709.231 526.505C708.725 526.143 708.427 525.653 708.336 525.035C708.243 524.402 708.388 523.847 708.771 523.371C709.168 522.876 709.722 522.576 710.435 522.472C711.131 522.37 711.733 522.5 712.238 522.863C712.758 523.207 713.064 523.696 713.157 524.329C713.247 524.947 713.094 525.503 712.698 525.997C712.315 526.474 711.775 526.763 711.078 526.865ZM713.298 527.947L715.239 541.198L711.178 541.792L709.238 528.542L713.298 527.947ZM724.597 540.021C723.299 540.211 722.087 540.106 720.961 539.705C719.851 539.301 718.92 538.629 718.167 537.688C717.431 536.745 716.962 535.585 716.76 534.207C716.561 532.846 716.687 531.607 717.137 530.49C717.586 529.357 718.292 528.437 719.256 527.729C720.22 527.022 721.351 526.574 722.649 526.384C723.947 526.193 725.159 526.299 726.285 526.7C727.411 527.101 728.351 527.78 729.106 528.737C729.858 529.678 730.334 530.829 730.533 532.19C730.733 533.552 730.6 534.8 730.136 535.935C729.685 537.053 728.97 537.966 727.99 538.675C727.026 539.382 725.896 539.831 724.597 540.021ZM724.083 536.507C724.858 536.393 725.474 536.012 725.928 535.363C726.399 534.712 726.557 533.856 726.401 532.795C726.246 531.735 725.858 530.959 725.236 530.468C724.63 529.974 723.939 529.784 723.163 529.898C722.372 530.014 721.757 530.395 721.318 531.042C720.876 531.672 720.735 532.526 720.892 533.602C721.048 534.663 721.42 535.441 722.01 535.937C722.616 536.43 723.307 536.62 724.083 536.507ZM740.127 523.872C741.678 523.645 742.987 523.971 744.054 524.85C745.134 525.71 745.802 527.019 746.06 528.776L747.194 536.518L743.157 537.109L742.103 529.914C741.973 529.027 741.643 528.372 741.112 527.949C740.581 527.525 739.927 527.37 739.152 527.484C738.376 527.597 737.794 527.933 737.407 528.491C737.02 529.049 736.891 529.771 737.021 530.658L738.075 537.853L734.014 538.448L732.073 525.197L736.134 524.603L736.392 526.36C736.717 525.714 737.204 525.174 737.852 524.739C738.498 524.289 739.256 524 740.127 523.872Z" fill="#BDBDBD"/>
<defs>
<filter id="filter0_d" x="392" y="11" width="499.166" height="632.703" filterUnits="userSpaceOnUse" color-interpolation-filters="sRGB">
<feFlood flood-opacity="0" result="BackgroundImageFix"/>
<feColorMatrix in="SourceAlpha" type="matrix" values="0 0 0 0 0 0 0 0 0 0 0 0 0 0 0 0 0 0 127 0"/>
<feOffset dy="4"/>
<feGaussianBlur stdDeviation="7"/>
<feColorMatrix type="matrix" values="0 0 0 0 1 0 0 0 0 1 0 0 0 0 1 0 0 0 0.51 0"/>
<feBlend mode="normal" in2="BackgroundImageFix" result="effect1_dropShadow"/>
<feBlend mode="normal" in="SourceGraphic" in2="effect1_dropShadow" result="shape"/>
</filter>
<filter id="filter1_d" x="0" y="0" width="514.492" height="643.683" filterUnits="userSpaceOnUse" color-interpolation-filters="sRGB">
<feFlood flood-opacity="0" result="BackgroundImageFix"/>
<feColorMatrix in="SourceAlpha" type="matrix" values="0 0 0 0 0 0 0 0 0 0 0 0 0 0 0 0 0 0 127 0"/>
<feOffset dy="4"/>
<feGaussianBlur stdDeviation="7"/>
<feColorMatrix type="matrix" values="0 0 0 0 1 0 0 0 0 1 0 0 0 0 1 0 0 0 0.6 0"/>
<feBlend mode="normal" in2="BackgroundImageFix" result="effect1_dropShadow"/>
<feBlend mode="normal" in="SourceGraphic" in2="effect1_dropShadow" result="shape"/>
</filter>
<filter id="filter2_d" x="412" y="30" width="464.241" height="593.548" filterUnits="userSpaceOnUse" color-interpolation-filters="sRGB">
<feFlood flood-opacity="0" result="BackgroundImageFix"/>
<feColorMatrix in="SourceAlpha" type="matrix" values="0 0 0 0 0 0 0 0 0 0 0 0 0 0 0 0 0 0 127 0"/>
<feOffset dx="2" dy="4"/>
<feGaussianBlur stdDeviation="2"/>
<feColorMatrix type="matrix" values="0 0 0 0 0 0 0 0 0 0 0 0 0 0 0 0 0 0 0.25 0"/>
<feBlend mode="normal" in2="BackgroundImageFix" result="effect1_dropShadow"/>
<feBlend mode="normal" in="SourceGraphic" in2="effect1_dropShadow" result="shape"/>
</filter>
<filter id="filter3_d" x="29.9995" y="0" width="507.216" height="623.732" filterUnits="userSpaceOnUse" color-interpolation-filters="sRGB">
<feFlood flood-opacity="0" result="BackgroundImageFix"/>
<feColorMatrix in="SourceAlpha" type="matrix" values="0 0 0 0 0 0 0 0 0 0 0 0 0 0 0 0 0 0 127 0"/>
<feOffset dx="-4" dy="4"/>
<feGaussianBlur stdDeviation="2"/>
<feColorMatrix type="matrix" values="0 0 0 0 0 0 0 0 0 0 0 0 0 0 0 0 0 0 0.25 0"/>
<feBlend mode="normal" in2="BackgroundImageFix" result="effect1_dropShadow"/>
<feBlend mode="normal" in="SourceGraphic" in2="effect1_dropShadow" result="shape"/>
</filter>
<linearGradient id="paint0_linear" x1="435.513" y1="365.634" x2="521.505" y2="363.722" gradientUnits="userSpaceOnUse">
<stop offset="0.208333" stop-color="#C4C4C4" stop-opacity="0"/>
<stop offset="0.473958" stop-color="#C4C4C4"/>
<stop offset="0.755208" stop-color="#C4C4C4" stop-opacity="0"/>
</linearGradient>
</defs>
</svg>
